<?xml version="1.0" standalone="no"?>
<!DOCTYPE svg PUBLIC "-//W3C//DTD SVG 20010904//EN"
 "http://www.w3.org/TR/2001/REC-SVG-20010904/DTD/svg10.dtd">
<svg version="1.0" xmlns="http://www.w3.org/2000/svg"
 width="600.000000pt" height="600.000000pt" viewBox="0 0 600.000000 600.000000"
 preserveAspectRatio="xMidYMid meet">

<g transform="translate(0.000000,600.000000) scale(0.100000,-0.100000)"
fill="#000000" stroke="none">
<path d="M2867 5667 c-86 -91 -177 -197 -177 -207 0 -14 -139 -150 -152 -150
-12 0 -55 -49 -73 -82 -9 -16 -21 -28 -28 -28 -7 0 -18 -23 -24 -50 -7 -28
-22 -64 -34 -81 -12 -17 -19 -33 -16 -36 4 -3 -14 -30 -38 -59 -24 -30 -47
-63 -50 -74 -5 -16 -15 -20 -53 -19 -79 1 -133 -12 -184 -43 -40 -25 -61 -30
-130 -34 -51 -3 -88 -10 -98 -19 -8 -8 -36 -15 -60 -16 -25 -1 -49 -6 -55 -9
-9 -7 -55 -10 -160 -10 -16 0 -46 2 -65 6 l-35 6 25 -23 c22 -22 33 -24 125
-24 55 -1 106 -4 113 -9 7 -4 24 -25 37 -46 20 -32 34 -42 82 -55 32 -9 75
-25 95 -36 63 -33 109 -19 72 23 -32 34 -95 59 -134 53 -30 -5 -40 -2 -63 23
-26 27 -26 29 -10 44 24 20 152 42 196 34 22 -4 50 -21 74 -45 33 -34 47 -40
113 -51 41 -6 94 -21 117 -32 39 -19 73 -19 73 0 0 26 -52 53 -131 68 -98 19
-152 42 -157 67 -5 25 26 57 54 57 13 0 26 5 30 11 3 6 19 9 35 5 16 -3 53 -1
83 5 52 9 57 8 118 -24 34 -19 68 -44 73 -56 6 -12 20 -24 32 -27 12 -3 25
-15 28 -25 11 -33 47 -32 55 1 5 20 12 25 38 24 25 -2 32 3 34 20 2 17 9 21
37 18 30 -2 33 0 27 21 -5 20 0 25 30 36 66 24 61 12 -65 -147 -36 -46 -74
-96 -83 -110 -10 -14 -39 -49 -66 -77 -43 -45 -69 -78 -97 -124 -5 -9 -20 -33
-34 -53 l-24 -38 -683 0 -683 0 69 -119 c39 -66 73 -126 76 -134 3 -8 -15 -47
-40 -86 -118 -183 -215 -424 -262 -646 -35 -165 -44 -457 -20 -625 38 -261
124 -504 254 -720 315 -522 868 -883 1493 -974 59 -9 111 -16 117 -16 6 0 13
62 17 160 4 88 10 162 14 164 3 3 58 -80 122 -182 159 -258 143 -259 284 20
83 163 110 208 115 193 4 -11 15 -85 25 -165 9 -80 21 -149 25 -153 4 -5 62 5
128 22 510 128 954 439 1235 866 68 104 200 368 219 437 7 27 18 48 26 48 9 0
10 5 4 16 -6 10 -2 44 9 92 35 145 51 284 51 447 0 387 -100 710 -332 1073
-14 21 -11 31 53 152 l68 130 -659 0 -658 0 -26 28 c-42 45 -128 161 -128 172
0 5 -4 10 -10 10 -5 0 -10 9 -10 20 0 11 -4 20 -10 20 -5 0 -17 11 -25 24 -15
22 -15 27 0 55 18 36 45 41 45 10 0 -12 8 -27 17 -34 15 -11 15 -15 3 -29 -12
-15 -11 -18 8 -23 12 -3 22 -9 22 -14 0 -5 16 -9 36 -9 35 0 36 -1 32 -30 -4
-28 -2 -30 28 -30 24 0 33 -5 37 -22 5 -19 8 -20 23 -7 16 13 16 14 1 17 -21
4 -21 22 -3 67 18 42 33 44 65 9 19 -20 31 -24 52 -20 16 3 32 0 38 -7 8 -11
59 -14 103 -8 19 3 38 36 38 67 0 38 4 40 52 20 51 -22 65 -42 44 -64 -9 -10
-16 -24 -16 -31 0 -14 40 -31 66 -27 21 3 30 21 15 31 -6 3 -11 17 -11 29 0
13 -7 29 -15 36 -8 7 -15 18 -15 25 0 29 -132 90 -160 75 -22 -12 -100 0 -100
15 0 22 28 38 55 31 32 -8 32 2 0 14 -24 9 -25 13 -19 62 10 85 33 91 53 14
14 -56 59 -96 107 -96 19 0 42 -4 52 -9 9 -5 34 -16 56 -25 21 -9 54 -35 74
-56 19 -22 41 -40 47 -40 6 0 31 -13 56 -29 24 -16 57 -33 72 -37 22 -5 27
-11 24 -25 -6 -23 -3 -23 28 -3 21 14 32 14 72 5 45 -11 91 -19 121 -20 7 -1
20 -10 29 -20 12 -15 24 -18 52 -14 20 3 41 10 47 15 11 8 44 1 44 -9 0 -2 -5
-13 -10 -24 -16 -30 18 -39 41 -11 19 24 58 29 77 10 7 -7 25 -14 40 -15 44
-4 62 -9 74 -21 7 -7 19 -12 28 -12 9 0 20 -3 24 -7 4 -5 33 -8 64 -8 l57 0
48 -70 c360 -521 492 -1227 346 -1853 -24 -106 -24 -112 5 -112 22 0 26 7 45
87 46 204 56 298 56 553 0 260 -10 350 -60 565 -62 263 -180 534 -338 777 -28
42 -54 75 -58 73 -3 -3 -14 10 -23 28 l-16 32 0 -28 c0 -38 -28 -47 -52 -17
-18 22 -19 22 -32 5 -15 -21 -46 -14 -46 10 0 12 -6 15 -20 10 -16 -5 -23 0
-35 29 -21 49 -11 66 37 66 34 0 39 2 28 15 -15 18 -5 35 21 35 11 0 24 -11
31 -25 6 -14 15 -25 19 -25 4 0 12 -12 17 -27 9 -24 11 -25 11 -7 2 48 -30 99
-92 145 -15 11 -35 35 -43 52 -15 30 -61 76 -76 77 -4 0 -10 -9 -13 -20 -10
-31 -49 -25 -77 11 -47 64 -75 84 -129 96 -47 11 -64 10 -133 -7 -43 -11 -87
-20 -97 -20 -10 0 -37 23 -60 50 -23 28 -56 59 -72 69 -30 19 -30 19 -73 -5
-24 -13 -52 -24 -64 -24 -32 0 -78 27 -85 50 -8 25 -50 54 -64 45 -16 -9 -49
13 -65 43 -8 16 -35 41 -60 57 -25 15 -62 51 -82 79 -24 34 -53 59 -83 73 -70
34 -130 53 -165 53 -40 0 -132 49 -154 82 -26 38 -91 108 -101 108 -13 0 -91
100 -91 116 0 7 -11 21 -25 30 -14 9 -25 25 -25 35 0 11 -6 19 -13 19 -8 0
-21 8 -30 18 -11 12 -33 18 -67 20 -42 2 -55 -2 -73 -21z m100 -104 c4 -12
-23 -43 -38 -43 -20 0 -22 33 -4 47 21 14 37 13 42 -4z m-82 -63 c8 -24 -1
-40 -21 -40 -9 0 -14 11 -14 30 0 35 25 42 35 10z m112 -114 c-8 -20 -47 -21
-47 -1 0 18 32 37 44 25 5 -5 6 -16 3 -24z m-87 -11 c9 -11 8 -19 -7 -39 -10
-14 -24 -26 -30 -26 -17 0 -17 52 -1 68 16 16 23 15 38 -3z m-109 -127 c37
-41 38 -74 3 -90 -25 -12 -29 -10 -60 27 -18 22 -39 41 -46 41 -7 1 -19 2 -25
3 -7 0 -13 12 -13 26 0 24 3 25 56 25 49 0 58 -3 85 -32z m536 -3 c7 -20 -2
-29 -21 -22 -9 4 -13 13 -10 22 8 19 23 19 31 0z m-697 -95 c22 -11 46 -20 54
-20 8 0 18 -4 21 -10 14 -23 -8 -27 -65 -13 -52 14 -60 19 -60 39 0 29 1 29
50 4z m-136 -143 c12 -33 4 -41 -29 -33 -27 7 -33 34 -13 54 17 17 31 10 42
-21z m-76 -130 c15 -24 15 -29 2 -37 -27 -17 -66 40 -43 64 11 11 23 2 41 -27z
m168 -12 c7 -29 -3 -48 -22 -41 -7 3 -22 -9 -34 -30 -12 -18 -25 -34 -30 -34
-14 0 -50 70 -50 96 0 30 24 40 85 36 38 -3 46 -8 51 -27z m334 -55 c0 -10 9
-24 20 -30 15 -8 451 -557 565 -711 11 -15 129 -167 263 -338 l243 -310 -36
-72 c-20 -39 -40 -68 -44 -63 -5 5 -239 310 -521 677 -417 545 -515 666 -525
655 -7 -7 -111 -141 -232 -298 -603 -783 -795 -1030 -801 -1026 -4 3 -22 33
-41 69 l-34 64 458 599 c637 831 614 804 656 804 22 0 29 -5 29 -20z m-285 0
c4 -6 4 -18 1 -27 -5 -12 -9 -13 -21 -3 -8 7 -15 19 -15 26 0 16 26 19 35 4z
m1609 -17 c9 -19 12 -42 7 -67 -8 -53 -31 -60 -31 -9 0 22 -8 48 -20 63 -26
33 -25 40 5 40 17 0 29 -9 39 -27z m397 -103 c21 -30 39 -62 39 -71 0 -9 23
-39 50 -68 54 -56 61 -82 31 -120 -22 -29 -44 -20 -35 15 5 18 2 24 -10 24 -9
0 -16 8 -16 20 0 11 -4 20 -10 20 -5 0 -10 11 -10 24 0 21 -6 24 -56 31 -62 7
-74 23 -74 98 0 104 31 113 91 27z m-318 26 c6 -16 -16 -40 -26 -29 -4 3 -7
15 -7 25 0 21 25 24 33 4z m-297 -22 c0 -10 4 -27 9 -38 10 -22 -5 -51 -26
-51 -8 0 -14 7 -15 15 0 8 -4 23 -9 33 -10 23 11 70 28 64 6 -2 12 -12 13 -23z
m85 6 c36 -27 29 -50 -17 -50 -35 0 -43 15 -28 54 8 20 10 20 45 -4z m-573
-88 c3 -17 -2 -22 -17 -22 -14 0 -21 6 -21 18 0 38 33 41 38 4z m670 6 c-7
-19 -38 -22 -38 -4 0 10 9 16 21 16 12 0 19 -5 17 -12z m-1904 -410 c-4 -7
-25 -37 -47 -65 l-39 -53 -440 0 c-245 0 -438 -4 -436 -9 2 -4 191 -339 422
-744 230 -405 418 -739 417 -744 0 -4 -34 -9 -74 -11 l-74 -3 -471 814 c-260
448 -472 817 -472 821 0 3 275 6 611 6 485 0 609 -3 603 -12z m890 -50 l48
-63 -171 -3 c-93 -1 -249 -1 -346 0 l-177 3 48 63 48 62 251 0 251 0 48 -62z
m1454 53 c-3 -8 -404 -788 -685 -1331 l-152 -295 -75 0 c-42 0 -77 3 -78 6 -2
3 165 336 370 741 204 405 372 741 372 747 0 8 -116 11 -421 11 l-421 0 -22
27 c-11 15 -34 44 -49 65 l-29 38 597 0 c328 0 595 -4 593 -9z m-1659 -493
c42 -64 71 -153 71 -219 0 -85 -53 -213 -109 -263 -21 -19 -22 -19 -36 0 -60
81 -91 207 -76 305 14 85 83 229 110 229 4 0 22 -23 40 -52z m-377 -189 c89
-18 193 -51 200 -63 4 -6 8 -23 8 -39 0 -15 9 -52 19 -82 l19 -54 -56 -6 c-32
-4 -70 -8 -87 -10 -16 -2 -64 -13 -105 -23 -41 -11 -79 -18 -83 -15 -5 3 -15
-3 -22 -13 -13 -17 -16 -17 -26 -4 -9 13 -10 13 -6 -2 3 -9 -3 -24 -14 -34
-28 -25 -24 -55 16 -106 19 -25 31 -49 27 -53 -4 -4 0 -6 8 -4 18 4 120 -58
120 -73 0 -6 7 -7 16 -4 9 4 22 2 28 -3 6 -5 16 -9 21 -10 6 0 40 -5 76 -12
41 -7 115 -10 190 -7 105 5 136 10 205 36 45 16 99 42 120 56 21 14 47 26 58
26 11 0 17 3 13 6 -3 3 15 31 39 61 25 30 47 68 51 84 3 16 9 29 14 29 5 0 9
5 9 11 0 5 -4 8 -9 5 -4 -3 -27 3 -49 14 -22 11 -74 25 -113 30 -40 6 -77 16
-81 23 -5 7 -8 8 -8 1 0 -12 -95 -17 -151 -8 l-36 5 23 57 c13 31 24 66 24 78
0 45 51 71 185 95 64 11 358 9 369 -2 5 -4 -93 -588 -109 -655 l-5 -22 -61 19
c-118 37 -280 21 -416 -42 -77 -34 -101 -33 -158 6 -21 14 -61 32 -88 40 -64
19 -230 19 -317 1 -36 -8 -66 -13 -68 -12 -4 5 -122 599 -122 618 0 13 17 27
53 43 42 20 68 25 139 25 48 0 111 -5 140 -11z m1068 -129 c0 -28 -79 -573
-84 -577 -1 -2 -13 8 -25 21 l-22 24 45 295 c25 163 46 300 46 304 1 22 40
-43 40 -67z m-1366 -254 c36 -154 66 -287 66 -297 0 -9 -8 -27 -19 -40 -23
-28 -13 -58 -91 286 -60 262 -61 271 -45 304 9 18 17 32 20 30 2 -2 33 -130
69 -283z m572 99 c23 -35 15 -59 -21 -63 -17 -2 -81 -14 -143 -28 -136 -29
-249 -32 -259 -8 -14 37 76 76 242 105 141 25 161 24 181 -6z m417 4 c122 -17
165 -60 85 -86 -29 -10 -69 -8 -219 10 -196 24 -205 28 -179 77 11 20 17 20
128 15 64 -4 148 -11 185 -16z m-1654 -114 c17 -30 31 -60 30 -67 0 -7 -91
-130 -203 -273 l-202 -260 808 -3 c444 -1 1172 -1 1617 0 l810 3 -199 258
-199 259 37 68 c33 61 39 67 52 54 8 -8 144 -180 301 -382 l286 -367 -496 -5
c-273 -3 -1125 -6 -1894 -8 -1353 -2 -1398 -2 -1385 16 109 150 593 770 598
767 5 -3 22 -30 39 -60z m1421 -31 c64 -22 87 -26 155 -22 56 3 93 11 123 26
23 13 42 18 42 13 0 -19 -96 -93 -164 -126 -103 -50 -172 -65 -306 -65 -170 0
-282 33 -382 112 -68 53 -53 57 111 28 86 -15 188 1 261 39 30 16 62 28 70 26
8 -3 49 -16 90 -31z m-319 -260 c61 -18 139 -60 139 -75 0 -21 -32 -20 -94 5
-91 36 -166 43 -246 21 -120 -33 -183 -18 -101 25 82 41 207 52 302 24z m694
-15 c101 -41 67 -78 -38 -43 -76 27 -205 24 -282 -5 -86 -32 -111 -36 -118
-17 -5 11 10 23 57 46 88 42 127 50 231 46 67 -2 105 -9 150 -27z m-934 -804
l187 -330 -70 -3 c-39 -2 -75 1 -80 6 -14 14 -378 644 -378 654 0 5 34 8 76 6
l77 -3 188 -330z m1179 328 c-1 -5 -76 -154 -169 -333 l-168 -325 -78 -3 c-50
-2 -76 1 -73 7 1 6 77 157 168 336 l165 325 78 0 c42 0 77 -3 77 -7z m1126
-79 c-34 -93 -188 -357 -279 -480 -243 -325 -581 -557 -1046 -718 -57 -20
-106 -34 -108 -32 -3 2 50 69 118 148 67 78 127 155 133 171 6 15 14 27 18 27
4 0 8 6 8 14 0 8 42 40 93 71 294 183 519 404 707 694 47 72 88 130 92 131 10
0 28 -59 35 -117 3 -29 10 -53 14 -53 10 0 148 121 198 174 19 20 36 36 38 36
1 0 -8 -29 -21 -66z m-3608 -226 l30 -19 7 53 c8 63 24 118 34 118 4 0 42 -48
84 -107 239 -337 572 -607 927 -752 49 -20 68 -38 175 -166 66 -79 120 -149
120 -157 0 -24 -49 -19 -175 17 -478 136 -854 367 -1103 675 -73 90 -233 333
-275 416 -56 112 -52 114 51 24 53 -46 109 -92 125 -102z m2412 -508 l0 -120
-670 0 -670 0 0 120 0 120 670 0 670 0 0 -120z m-956 -167 c8 -21 -14 -333
-24 -333 -7 0 -283 325 -288 340 -2 6 55 10 151 10 137 0 156 -2 161 -17z
m526 10 c0 -5 -208 -412 -215 -421 -3 -4 -245 413 -245 422 0 3 104 6 230 6
127 0 230 -3 230 -7z m410 0 c0 -10 -277 -337 -288 -341 -11 -3 -35 307 -26
331 5 15 24 17 160 17 85 0 154 -3 154 -7z"/>
<path d="M3415 3450 c3 -5 8 -10 11 -10 2 0 4 5 4 10 0 6 -5 10 -11 10 -5 0
-7 -4 -4 -10z"/>
<path d="M2470 3440 c0 -5 5 -10 10 -10 6 0 10 5 10 10 0 6 -4 10 -10 10 -5 0
-10 -4 -10 -10z"/>
<path d="M2560 3440 c0 -5 5 -10 10 -10 6 0 10 5 10 10 0 6 -4 10 -10 10 -5 0
-10 -4 -10 -10z"/>
<path d="M2430 3429 c0 -5 5 -7 10 -4 6 3 10 8 10 11 0 2 -4 4 -10 4 -5 0 -10
-5 -10 -11z"/>
<path d="M2605 3430 c3 -5 8 -10 11 -10 2 0 4 5 4 10 0 6 -5 10 -11 10 -5 0
-7 -4 -4 -10z"/>
<path d="M3240 3429 c0 -5 5 -7 10 -4 6 3 10 8 10 11 0 2 -4 4 -10 4 -5 0 -10
-5 -10 -11z"/>
<path d="M2690 3410 c0 -5 5 -10 10 -10 6 0 10 5 10 10 0 6 -4 10 -10 10 -5 0
-10 -4 -10 -10z"/>
<path d="M3315 3380 c3 -5 8 -10 11 -10 2 0 4 5 4 10 0 6 -5 10 -11 10 -5 0
-7 -4 -4 -10z"/>
<path d="M3405 3380 c3 -5 8 -10 11 -10 2 0 4 5 4 10 0 6 -5 10 -11 10 -5 0
-7 -4 -4 -10z"/>
<path d="M2530 3369 c0 -5 5 -7 10 -4 6 3 10 8 10 11 0 2 -4 4 -10 4 -5 0 -10
-5 -10 -11z"/>
<path d="M2570 3370 c0 -5 5 -10 10 -10 6 0 10 5 10 10 0 6 -4 10 -10 10 -5 0
-10 -4 -10 -10z"/>
<path d="M2660 3349 c0 -5 5 -7 10 -4 6 3 10 8 10 11 0 2 -4 4 -10 4 -5 0 -10
-5 -10 -11z"/>
<path d="M2700 3340 c0 -5 5 -10 10 -10 6 0 10 5 10 10 0 6 -4 10 -10 10 -5 0
-10 -4 -10 -10z"/>
<path d="M3145 3340 c-3 -5 -1 -10 4 -10 6 0 11 5 11 10 0 6 -2 10 -4 10 -3 0
-8 -4 -11 -10z"/>
<path d="M3300 3310 c0 -5 5 -10 10 -10 6 0 10 5 10 10 0 6 -4 10 -10 10 -5 0
-10 -4 -10 -10z"/>
<path d="M3390 3309 c0 -5 5 -7 10 -4 6 3 10 8 10 11 0 2 -4 4 -10 4 -5 0 -10
-5 -10 -11z"/>
<path d="M2540 3299 c0 -5 5 -7 10 -4 6 3 10 8 10 11 0 2 -4 4 -10 4 -5 0 -10
-5 -10 -11z"/>
<path d="M2585 3300 c-3 -5 -1 -10 4 -10 6 0 11 5 11 10 0 6 -2 10 -4 10 -3 0
-8 -4 -11 -10z"/>
<path d="M2455 3290 c3 -5 8 -10 11 -10 2 0 4 5 4 10 0 6 -5 10 -11 10 -5 0
-7 -4 -4 -10z"/>
<path d="M3475 3290 c-3 -5 -1 -10 4 -10 6 0 11 5 11 10 0 6 -2 10 -4 10 -3 0
-8 -4 -11 -10z"/>
<path d="M2670 3279 c0 -5 5 -7 10 -4 6 3 10 8 10 11 0 2 -4 4 -10 4 -5 0 -10
-5 -10 -11z"/>
<path d="M3465 3120 c-3 -5 -1 -10 4 -10 6 0 11 5 11 10 0 6 -2 10 -4 10 -3 0
-8 -4 -11 -10z"/>
<path d="M2555 2950 c-3 -5 -1 -10 4 -10 6 0 11 5 11 10 0 6 -2 10 -4 10 -3 0
-8 -4 -11 -10z"/>
<path d="M2600 2949 c0 -5 5 -7 10 -4 6 3 10 8 10 11 0 2 -4 4 -10 4 -5 0 -10
-5 -10 -11z"/>
<path d="M3305 2950 c-3 -5 -1 -10 4 -10 6 0 11 5 11 10 0 6 -2 10 -4 10 -3 0
-8 -4 -11 -10z"/>
<path d="M3350 2949 c0 -5 5 -7 10 -4 6 3 10 8 10 11 0 2 -4 4 -10 4 -5 0 -10
-5 -10 -11z"/>
<path d="M3390 2950 c0 -5 5 -10 10 -10 6 0 10 5 10 10 0 6 -4 10 -10 10 -5 0
-10 -4 -10 -10z"/>
<path d="M2510 2940 c0 -5 5 -10 10 -10 6 0 10 5 10 10 0 6 -4 10 -10 10 -5 0
-10 -4 -10 -10z"/>
<path d="M3260 2940 c0 -5 5 -10 10 -10 6 0 10 5 10 10 0 6 -4 10 -10 10 -5 0
-10 -4 -10 -10z"/>
<path d="M4522 2080 c-10 -11 -25 -32 -32 -45 -15 -29 -11 -33 66 -76 50 -27
73 -17 31 13 -34 24 -28 34 23 43 51 9 62 25 16 25 -25 0 -36 5 -36 14 0 16
-26 46 -40 46 -5 0 -18 -9 -28 -20z m43 -19 c6 -11 -15 -61 -25 -61 -21 0 -29
27 -14 48 16 23 29 28 39 13z"/>
<path d="M4439 1959 c-12 -17 -44 -56 -70 -86 -27 -31 -46 -60 -43 -65 3 -5
13 -3 23 6 15 14 21 11 63 -25 28 -24 49 -35 53 -29 4 6 -14 29 -40 52 -42 37
-45 42 -30 58 8 9 12 20 8 23 -3 4 -1 7 5 7 6 0 13 -3 16 -8 2 -4 24 -22 49
-39 l44 -32 33 45 c38 54 31 74 -10 24 -24 -29 -30 -32 -44 -21 -14 12 -14 16
5 43 28 39 15 50 -16 13 -19 -24 -26 -28 -36 -18 -10 10 -9 19 9 43 24 32 27
40 13 40 -5 0 -20 -14 -32 -31z"/>
<path d="M4272 1767 c-31 -33 -28 -70 9 -101 37 -31 62 -33 89 -6 22 22 28 74
8 68 -7 -3 -13 -11 -14 -19 -2 -35 -5 -39 -27 -39 -34 0 -75 46 -61 68 6 9 21
19 33 22 29 6 32 24 6 28 -12 2 -30 -8 -43 -21z"/>
<path d="M4162 1667 c-11 -14 34 -147 50 -147 6 0 7 11 4 24 -4 18 0 28 20 40
13 10 33 14 44 11 10 -3 21 -1 25 4 3 6 -25 26 -64 45 -53 27 -71 32 -79 23z
m59 -43 c10 -13 10 -17 -1 -24 -15 -9 -30 4 -30 28 0 17 15 15 31 -4z"/>
<path d="M4043 1577 c-38 -25 -37 -29 14 -97 38 -51 71 -56 38 -6 -16 24 -16
26 -1 32 9 3 30 1 47 -6 22 -10 33 -10 41 -2 8 8 4 14 -16 22 -15 5 -30 10
-34 10 -4 0 -7 15 -7 33 0 27 -4 32 -25 34 -14 1 -40 -8 -57 -20z m63 -8 c3
-6 -3 -20 -14 -32 -18 -17 -23 -18 -37 -7 -15 13 -15 15 7 32 27 21 34 22 44
7z"/>
<path d="M3934 1496 c-11 -28 16 -146 33 -146 10 0 14 7 10 20 -7 28 32 53 67
44 43 -10 30 11 -31 52 -73 49 -72 49 -79 30z m51 -42 c17 -13 18 -16 5 -24
-23 -14 -27 -12 -32 15 -6 29 -1 30 27 9z"/>
<path d="M3850 1439 c0 -6 4 -19 10 -29 8 -14 5 -21 -15 -34 -23 -15 -25 -15
-41 9 -11 17 -20 23 -27 16 -11 -11 52 -121 70 -121 17 0 16 6 -3 35 -15 22
-14 24 12 42 17 11 29 14 31 7 8 -25 31 -47 41 -40 7 4 -1 27 -25 66 -33 56
-53 74 -53 49z"/>
<path d="M3683 1355 c-32 -23 -31 -78 2 -110 28 -29 51 -31 82 -10 25 18 37
55 17 55 -8 0 -14 -7 -14 -15 0 -8 -10 -20 -22 -26 -19 -10 -25 -8 -45 15 -35
41 -25 80 21 81 15 0 26 5 26 10 1 17 -44 17 -67 0z"/>
<path d="M1331 1909 c-50 -40 -68 -68 -33 -54 28 12 62 18 62 11 0 -4 -6 -21
-13 -39 -14 -32 -12 -57 3 -57 4 0 13 20 20 45 12 44 14 45 53 45 53 0 37 19
-22 27 l-42 6 21 22 c11 11 20 24 20 28 0 15 -20 5 -69 -34z"/>
<path d="M1416 1795 c-29 -26 -45 -48 -41 -55 5 -8 18 -1 41 21 38 37 40 33
20 -34 -22 -72 6 -73 73 -3 43 45 34 57 -14 20 l-36 -27 7 29 c4 16 11 40 16
52 8 23 4 42 -10 42 -4 -1 -29 -21 -56 -45z"/>
<path d="M1515 1695 c-34 -33 -33 -77 1 -104 36 -28 60 -26 95 8 34 35 36 59
8 95 -27 34 -71 35 -104 1z m83 -7 c29 -29 -1 -88 -44 -88 -48 0 -52 63 -6 89
23 14 36 13 50 -1z"/>
<path d="M1657 1638 c-3 -7 -17 -39 -31 -71 -22 -48 -24 -59 -11 -63 8 -3 32
8 54 25 21 17 42 31 45 31 3 0 -4 -20 -16 -44 -11 -24 -18 -51 -15 -61 6 -14
13 -12 52 16 56 40 79 65 67 73 -5 3 -24 -8 -43 -24 -19 -16 -37 -29 -41 -30
-4 0 2 21 14 46 25 58 10 75 -37 40 -53 -40 -56 -39 -33 8 16 33 19 49 11 57
-7 7 -12 7 -16 -3z"/>
<path d="M1778 1463 l-37 -57 42 -28 c25 -17 43 -23 46 -17 3 11 -3 17 -38 38
-12 7 -9 18 17 58 35 55 38 63 20 63 -7 0 -30 -26 -50 -57z"/>
<path d="M1883 1401 c-18 -33 -33 -62 -33 -64 0 -3 20 -17 45 -30 53 -30 72
-17 21 14 -31 18 -34 24 -25 40 10 20 11 20 45 -1 26 -17 34 -18 34 -8 0 8
-11 21 -25 28 -24 13 -32 30 -18 43 3 4 21 -2 39 -13 19 -12 35 -17 38 -11 5
8 -70 61 -85 61 -2 0 -19 -27 -36 -59z"/>
<path d="M2000 1341 c-16 -33 -30 -64 -30 -69 0 -5 18 -17 40 -27 37 -17 41
-17 65 -1 30 20 48 61 41 91 -3 12 -23 31 -45 43 l-40 23 -31 -60z m84 -4 c24
-37 -35 -93 -72 -68 -11 7 -10 16 8 50 22 45 44 51 64 18z"/>
<path d="M2145 1295 c-27 -26 -33 -71 -12 -98 17 -24 72 -38 90 -24 27 23 28
47 2 59 -31 14 -45 3 -20 -16 13 -9 15 -15 6 -20 -17 -11 -58 1 -65 19 -8 22
10 62 34 75 17 9 24 7 44 -15 28 -30 36 -31 36 -5 0 20 -45 50 -75 50 -9 0
-27 -11 -40 -25z"/>
<path d="M2273 1205 l-22 -66 27 -10 c44 -17 82 -22 82 -12 0 5 -18 15 -39 22
-32 9 -38 15 -34 32 6 20 20 21 67 3 9 -3 16 -1 16 5 0 7 -13 17 -30 22 -16 6
-30 17 -30 25 0 16 19 18 54 4 16 -6 27 -6 31 0 6 10 -30 27 -75 37 -24 4 -27
0 -47 -62z"/>
<path d="M2409 1594 c-17 -21 -2 -46 37 -59 40 -14 55 -25 49 -36 -8 -13 -42
-11 -65 3 -24 15 -37 4 -20 -17 19 -23 97 -20 110 4 15 30 3 48 -43 64 -22 7
-43 19 -45 25 -5 16 33 15 58 0 24 -15 37 -4 20 17 -17 20 -84 20 -101 -1z"/>
<path d="M2580 1540 l0 -70 60 0 c33 0 60 4 60 10 0 6 -20 10 -45 10 -38 0
-45 3 -45 20 0 17 7 20 40 20 51 0 53 18 3 22 -27 2 -39 8 -41 21 -3 14 4 17
42 17 25 0 46 5 46 10 0 6 -27 10 -60 10 l-60 0 0 -70z"/>
<path d="M2750 1540 c0 -56 3 -70 15 -70 9 0 15 9 15 25 0 40 27 42 59 5 33
-41 63 -38 31 2 l-21 27 21 21 c16 16 18 24 10 40 -9 17 -21 20 -70 20 l-60 0
0 -70z m98 33 c-2 -12 -13 -18 -33 -18 -20 0 -31 6 -33 18 -3 14 4 17 33 17
29 0 36 -3 33 -17z"/>
<path d="M2936 1588 c24 -78 43 -113 63 -116 11 -2 21 -1 21 2 0 3 11 35 25
71 21 57 22 66 8 63 -9 -2 -22 -21 -30 -43 -21 -60 -29 -62 -48 -6 -10 31 -22
51 -31 51 -11 0 -13 -6 -8 -22z"/>
<path d="M3110 1540 c0 -56 3 -70 15 -70 12 0 15 14 15 70 0 56 -3 70 -15 70
-12 0 -15 -14 -15 -70z"/>
<path d="M3217 1592 c-23 -25 -22 -85 1 -105 37 -34 138 -9 104 25 -9 9 -15 7
-25 -7 -10 -13 -21 -16 -41 -11 -25 6 -27 10 -24 49 3 47 23 58 64 36 28 -15
42 -6 24 16 -18 21 -83 19 -103 -3z"/>
<path d="M3390 1540 l0 -70 60 0 c33 0 60 4 60 10 0 6 -20 10 -45 10 -38 0
-45 3 -45 20 0 17 7 20 40 20 51 0 53 18 3 22 -27 2 -39 8 -41 21 -3 14 4 17
42 17 25 0 46 5 46 10 0 6 -27 10 -60 10 l-60 0 0 -70z"/>
<path d="M1332 4835 c-7 -9 -30 -15 -52 -15 -35 0 -47 -8 -130 -87 -49 -49
-121 -110 -158 -136 -37 -26 -88 -73 -112 -102 -25 -30 -50 -55 -57 -55 -7 0
-43 -44 -81 -97 -233 -327 -377 -681 -438 -1078 -14 -92 -18 -174 -18 -350 0
-239 10 -331 56 -538 20 -90 23 -97 42 -91 12 4 23 8 25 10 2 2 -8 61 -22 131
-41 199 -50 284 -50 483 -1 282 34 502 119 760 74 223 250 555 372 700 l30 35
200 0 c110 0 199 -2 197 -5 -2 -3 94 -5 213 -6 l216 -1 -55 24 c-30 14 -65 25
-79 25 -27 0 -120 48 -140 73 -7 8 -17 15 -23 15 -5 0 -24 16 -43 35 -18 19
-40 35 -48 35 -19 0 -31 41 -22 76 9 34 77 133 92 134 6 0 17 -7 24 -15 15
-18 30 -19 30 -2 0 13 -52 57 -67 57 -4 -1 -14 -7 -21 -15z"/>
<path d="M2035 4559 c-11 -16 3 -56 21 -63 25 -10 46 12 34 35 -14 25 -47 42
-55 28z"/>
<path d="M2287 4433 c-4 -3 -7 -15 -7 -25 0 -13 8 -18 30 -18 25 0 30 4 30 25
0 20 -5 25 -23 25 -13 0 -27 -3 -30 -7z"/>
<path d="M4003 4433 c-7 -2 -13 -9 -13 -15 0 -6 7 -7 16 -4 27 10 84 -4 84
-21 0 -10 6 -13 16 -9 9 3 18 6 20 6 2 0 4 4 4 9 0 23 -92 49 -127 34z"/>
<path d="M5066 2157 c-10 -27 -16 -51 -13 -53 9 -9 311 -103 318 -98 8 5 39
92 39 110 0 6 -11 14 -25 16 -22 5 -26 1 -35 -33 -13 -48 -20 -52 -71 -39 -43
12 -42 8 -23 76 4 17 0 22 -20 26 -23 5 -27 1 -38 -34 -8 -27 -16 -37 -27 -34
-59 16 -62 18 -56 34 4 10 9 29 12 43 4 22 1 27 -19 31 -22 4 -27 -1 -42 -45z"/>
<path d="M488 2181 c-105 -34 -148 -84 -114 -135 23 -36 50 -40 123 -20 64 17
65 18 59 47 -8 39 -9 39 -39 32 -18 -5 -23 -12 -20 -26 6 -23 -17 -34 -53 -25
-20 5 -25 12 -22 34 7 58 192 108 222 59 9 -15 7 -22 -11 -36 -16 -13 -19 -21
-11 -29 15 -15 63 13 77 45 9 20 7 28 -14 48 -20 21 -33 25 -82 24 -32 0 -83
-8 -115 -18z"/>
<path d="M5019 2029 c-20 -20 -20 -21 -2 -51 36 -61 215 -132 279 -111 58 19
57 77 -1 113 -44 28 -68 10 -31 -22 20 -16 25 -28 20 -42 -10 -26 -87 -17
-161 20 -76 38 -85 83 -16 84 16 0 21 4 17 15 -9 23 -79 20 -105 -6z"/>
<path d="M552 1996 c-78 -12 -142 -25 -142 -29 0 -4 0 -11 0 -16 0 -5 20 -6
44 -4 41 5 44 4 54 -26 10 -28 8 -32 -19 -51 -26 -19 -40 -50 -21 -50 14 1
284 176 286 186 2 15 -53 13 -202 -10z m108 -20 c0 -6 -91 -58 -95 -54 -1 1
-6 13 -9 25 -6 19 -3 22 26 26 53 6 78 7 78 3z"/>
<path d="M630 1857 c-80 -33 -147 -62 -149 -64 -3 -2 0 -8 6 -14 7 -7 39 3
103 31 51 22 95 38 97 37 2 -2 -33 -34 -77 -72 -44 -38 -80 -69 -80 -71 0 -1
3 -9 6 -17 4 -12 35 -1 152 54 153 73 170 83 155 92 -6 4 -39 -8 -74 -24 -35
-17 -79 -37 -98 -45 l-34 -14 19 21 c10 11 47 44 81 72 59 47 79 78 51 76 -7
0 -78 -28 -158 -62z"/>
<path d="M4966 1911 c-3 -4 40 -27 95 -51 55 -23 98 -44 97 -46 -2 -2 -49 3
-103 11 -122 17 -135 18 -135 4 0 -10 281 -149 301 -149 5 0 9 7 9 15 0 8 -4
15 -9 15 -4 0 -46 18 -92 41 l-84 40 60 -6 c33 -3 86 -9 118 -12 47 -5 57 -3
57 9 0 10 -50 36 -147 77 -157 65 -159 66 -167 52z"/>
<path d="M4871 1743 l-30 -47 87 -49 c48 -26 114 -63 148 -82 l60 -34 34 55
c27 46 31 57 19 65 -24 15 -38 10 -54 -20 -21 -42 -29 -44 -74 -21 l-40 20 21
36 c18 30 19 37 7 45 -24 15 -38 10 -54 -21 -18 -35 -17 -35 -55 -15 -35 18
-36 21 -11 61 l19 32 -24 11 c-22 10 -26 7 -53 -36z"/>
<path d="M708 1709 c-76 -38 -138 -73 -138 -78 0 -4 10 -23 23 -42 32 -48 79
-51 161 -10 70 34 141 92 149 120 6 23 -27 81 -45 80 -7 0 -75 -31 -150 -70z
m137 10 c16 -25 -7 -56 -67 -92 -72 -42 -117 -48 -136 -16 -7 12 -12 22 -10
24 10 9 185 94 195 94 6 1 15 -4 18 -10z"/>
<path d="M4814 1658 c-9 -14 -6 -15 148 -106 97 -57 138 -76 142 -67 6 18 4
19 -151 108 -78 45 -135 72 -139 65z"/>
<path d="M934 1600 c-22 -10 -96 -37 -163 -60 -104 -37 -120 -45 -108 -57 11
-12 18 -11 47 1 34 14 35 13 57 -17 l23 -31 -27 -21 c-18 -15 -24 -27 -20 -39
6 -15 29 2 125 95 64 62 118 118 120 125 5 21 -11 22 -54 4z m-62 -82 c-42
-42 -43 -42 -58 -23 -14 19 -12 21 33 42 69 31 73 28 25 -19z"/>
<path d="M4750 1575 c-43 -52 105 -192 223 -212 27 -4 39 -1 56 16 28 28 27
44 -10 85 -38 44 -70 40 -38 -5 27 -38 11 -64 -34 -55 -35 7 -134 72 -147 96
-20 38 -13 52 25 48 28 -3 35 0 35 13 0 29 -88 41 -110 14z"/>
<path d="M903 1428 c-102 -70 -130 -94 -122 -104 8 -10 19 -6 52 17 23 16 58
32 77 36 l35 6 -26 -34 c-75 -101 -74 -98 -57 -115 14 -14 18 -11 48 38 67
109 82 123 154 137 36 7 66 17 66 22 0 19 -32 21 -95 5 -93 -23 -96 -21 -32
25 55 39 71 59 45 59 -7 -1 -73 -42 -145 -92z"/>
<path d="M4652 1458 c-21 -21 -14 -63 16 -90 41 -40 80 -52 124 -37 45 14 85
6 93 -21 10 -32 -4 -43 -46 -37 -46 6 -59 -6 -27 -26 42 -27 74 -28 102 -6 34
27 33 50 -4 93 -43 48 -87 61 -150 45 -44 -11 -52 -11 -67 3 -9 10 -13 24 -9
33 5 14 14 16 41 11 46 -9 49 17 4 33 -41 14 -62 14 -77 -1z"/>
<path d="M1020 1305 c-63 -51 -117 -101 -118 -110 -2 -10 1 -16 8 -13 23 7
258 203 253 211 -10 16 -33 2 -143 -88z"/>
<path d="M4488 1283 l-28 -29 114 -113 c79 -79 118 -111 127 -106 36 20 59 51
59 76 0 59 -134 183 -210 195 -29 5 -39 1 -62 -23z m128 -41 c41 -30 104 -97
104 -111 0 -4 -9 -16 -20 -26 -18 -17 -21 -16 -57 13 -21 17 -58 51 -83 76
-42 44 -43 46 -25 61 28 20 37 19 81 -13z"/>
<path d="M1189 1270 c-51 -27 -134 -105 -148 -139 -32 -77 16 -124 87 -86 36
19 53 54 22 46 -39 -11 -75 -6 -78 12 -5 24 103 133 141 142 38 10 54 -6 39
-39 -9 -19 -8 -25 3 -30 19 -7 45 31 45 64 0 52 -46 64 -111 30z"/>
<path d="M4416 1222 c-3 -5 27 -45 67 -88 l72 -78 -65 36 c-36 19 -81 45 -100
56 -19 12 -41 18 -47 14 -8 -5 24 -48 93 -127 58 -66 109 -121 114 -123 4 -2
11 2 15 8 4 7 -13 34 -42 63 -96 102 -96 105 -8 57 44 -23 84 -47 89 -51 13
-11 43 -12 50 -1 3 5 -48 61 -113 126 -65 65 -121 114 -125 108z"/>
<path d="M1342 1175 c-120 -52 -210 -198 -154 -248 39 -35 93 -15 164 61 57
61 78 100 78 147 0 29 -5 37 -26 45 -14 6 -26 10 -27 10 -1 -1 -17 -7 -35 -15z
m44 -50 c11 -28 -6 -64 -55 -114 -39 -40 -57 -51 -81 -51 -62 0 -47 64 32 135
51 46 94 58 104 30z"/>
<path d="M1399 988 c-51 -62 -96 -118 -101 -124 -6 -8 9 -23 42 -44 41 -26 53
-30 65 -20 22 18 19 27 -20 53 l-36 24 85 106 c77 94 89 117 65 117 -4 0 -49
-51 -100 -112z"/>
<path d="M4246 1091 c-4 -5 26 -75 66 -155 56 -115 74 -143 84 -135 11 9 11
16 -1 40 -19 36 -20 34 16 59 l30 22 23 -21 c22 -21 47 -27 59 -15 3 3 -38 40
-91 82 -53 41 -113 88 -132 104 -37 30 -46 33 -54 19z m116 -110 c21 -19 25
-28 17 -38 -19 -22 -27 -15 -55 39 -29 56 -25 56 38 -1z"/>
<path d="M1521 906 c-50 -69 -91 -130 -91 -135 0 -9 82 -61 97 -61 4 0 14 9
21 20 11 18 8 22 -28 40 -28 14 -38 25 -33 33 4 7 39 57 77 111 46 66 65 101
58 108 -6 6 -39 -31 -101 -116z"/>
<path d="M4044 965 c-28 -43 13 -152 87 -226 36 -36 45 -40 82 -37 37 3 44 7
59 38 19 38 18 41 -38 117 -24 32 -24 32 -54 15 -34 -19 -34 -20 -15 -46 12
-16 17 -17 30 -6 13 11 18 10 30 -6 8 -10 15 -21 15 -24 0 -13 -32 -50 -45
-50 -43 0 -134 135 -120 179 7 23 44 28 63 9 9 -9 15 -9 25 1 10 10 6 17 -18
37 -39 31 -80 31 -101 -1z"/>
<path d="M1712 933 c-11 -16 -43 -66 -72 -113 -29 -47 -59 -95 -67 -107 -14
-21 -12 -23 48 -53 49 -25 64 -29 70 -18 16 24 9 35 -31 53 -22 10 -40 21 -40
24 0 14 41 71 50 71 6 0 25 -7 42 -16 25 -13 32 -14 39 -2 15 23 10 34 -27 51
l-35 17 18 30 c20 35 24 35 64 14 32 -16 59 -7 59 20 0 10 -79 56 -95 56 -2 0
-12 -12 -23 -27z"/>
<path d="M3953 922 c-8 -5 4 -35 37 -92 27 -47 50 -89 50 -95 0 -5 -37 27 -82
72 -46 44 -88 79 -95 76 -8 -3 11 -52 58 -146 39 -78 73 -144 75 -146 3 -3 9
0 15 6 9 9 -1 34 -35 97 -25 47 -43 86 -38 86 4 0 39 -31 77 -70 64 -65 105
-87 105 -57 -1 25 -156 276 -167 269z"/>
<path d="M1873 861 c-57 -36 -123 -154 -123 -222 0 -39 32 -69 73 -69 44 0 62
15 87 73 26 62 26 63 -10 75 -26 10 -31 8 -41 -9 -8 -16 -7 -23 6 -33 26 -19
3 -56 -34 -56 -48 0 -54 45 -17 118 32 63 68 96 95 87 15 -4 21 -15 21 -36 0
-18 5 -29 14 -29 31 0 35 71 6 100 -25 25 -37 25 -77 1z"/>
<path d="M3797 853 c-2 -5 26 -72 64 -150 50 -106 72 -141 82 -137 12 4 5 26
-34 110 -86 184 -98 202 -112 177z"/>
<path d="M2021 807 c-5 -12 -32 -75 -60 -139 -28 -64 -51 -121 -51 -127 0 -8
120 -55 125 -48 2 1 6 12 9 24 6 19 2 24 -35 34 -49 15 -56 27 -34 68 17 35
19 35 64 20 36 -13 36 -12 45 17 5 18 0 23 -34 33 -22 6 -40 14 -40 17 0 3 7
19 16 35 11 22 20 29 32 24 44 -17 69 -17 76 1 8 22 2 28 -57 47 -47 16 -48
16 -56 -6z"/>
<path d="M3672 807 c-38 -12 -40 3 28 -177 31 -83 53 -126 64 -128 21 -4 20 6
-4 63 -39 91 -20 99 56 24 38 -38 57 -50 70 -45 15 6 10 15 -34 59 -47 48 -51
55 -46 88 4 23 1 47 -10 67 -32 62 -55 71 -124 49z m95 -67 c11 -22 10 -27 -8
-42 -32 -27 -46 -22 -59 18 -10 30 -10 38 1 45 23 15 53 5 66 -21z"/>
<path d="M3535 765 c-31 -9 -39 -17 -37 -31 5 -29 80 -276 86 -281 2 -2 32 3
65 13 46 12 61 21 61 35 0 27 -13 30 -63 15 l-46 -14 -15 44 -15 44 40 12 c32
9 39 16 37 32 -3 22 -24 26 -65 12 -19 -6 -25 -3 -33 20 -15 38 -7 52 35 60
26 5 35 11 31 21 -3 8 -6 19 -6 24 0 12 -25 10 -75 -6z"/>
<path d="M2252 734 c-51 -35 -102 -190 -82 -249 20 -61 71 -72 118 -26 56 57
86 228 47 271 -22 24 -53 26 -83 4z m56 -46 c28 -28 -1 -165 -41 -193 -27 -19
-32 -19 -51 1 -20 19 -20 47 -1 110 22 76 63 112 93 82z"/>
<path d="M3382 728 c-33 -7 -42 -13 -38 -26 3 -9 19 -77 35 -150 16 -74 31
-136 34 -138 2 -3 31 1 63 8 50 11 60 17 62 37 4 23 2 23 -51 17 l-56 -7 -10
37 c-13 46 -10 51 38 59 34 6 37 9 33 31 -5 27 -4 27 -54 15 -32 -8 -38 -6
-43 10 -3 11 -7 28 -10 38 -5 17 1 21 40 27 35 5 45 10 41 21 -3 8 -6 19 -6
24 0 11 -20 10 -78 -3z"/>
<path d="M2405 698 c-4 -19 -37 -163 -60 -265 -4 -18 -1 -23 15 -23 11 0 20 7
20 15 0 7 5 37 11 64 l11 51 39 -6 c37 -6 39 -5 39 19 0 20 -6 26 -35 31 -20
4 -33 12 -30 19 2 7 6 23 9 37 5 23 9 25 44 22 33 -3 40 -1 45 17 6 25 4 27
-55 35 -44 7 -48 5 -53 -16z"/>
<path d="M3280 699 c0 -7 7 -50 16 -97 8 -46 14 -86 11 -88 -2 -2 -26 39 -53
91 -27 52 -55 95 -61 95 -17 0 -17 0 7 -170 11 -79 20 -145 20 -147 0 -2 7 -3
15 -3 18 0 18 11 1 115 -8 44 -12 81 -11 83 2 2 24 -36 50 -83 43 -80 67 -106
82 -91 10 10 -51 299 -65 304 -6 2 -12 -2 -12 -9z"/>
<path d="M2600 588 c-7 -57 -16 -125 -20 -153 -9 -60 -5 -65 73 -65 54 0 57 1
57 25 0 23 -4 25 -44 25 -25 0 -47 3 -49 8 -2 4 -2 24 0 45 5 36 6 37 49 37
40 0 44 2 44 25 0 23 -4 25 -40 25 -36 0 -40 3 -40 24 0 49 9 57 56 50 42 -6
44 -5 44 19 0 19 -6 26 -31 31 -17 3 -44 6 -59 6 -28 0 -28 0 -40 -102z"/>
<path d="M2977 670 c-65 -52 -57 -263 12 -300 32 -17 66 -11 90 14 21 22 23
33 19 85 -2 33 -6 62 -9 65 -2 2 -19 1 -36 -1 -27 -4 -33 -10 -33 -29 0 -19 5
-24 25 -24 30 0 34 -29 7 -53 -48 -44 -85 1 -86 102 0 73 12 101 45 101 10 0
25 -10 33 -22 12 -17 19 -19 27 -11 17 17 -6 68 -37 82 -31 14 -27 15 -57 -9z"/>
<path d="M3113 668 c3 -13 11 -83 18 -157 9 -93 17 -135 26 -138 8 -3 16 -3
19 0 3 2 -2 60 -11 128 -22 181 -24 189 -42 189 -11 0 -14 -6 -10 -22z"/>
<path d="M2766 648 c-3 -18 -8 -90 -11 -160 -6 -109 -4 -128 8 -128 12 0 16
22 22 103 l8 102 34 -102 c28 -83 38 -103 54 -103 18 0 19 8 19 108 0 124 -9
212 -21 212 -5 0 -9 -48 -9 -106 0 -58 -4 -103 -8 -100 -5 3 -22 50 -38 106
-30 103 -49 125 -58 68z"/>
</g>
</svg>
